HIERARCHY
ROOT Root
{
  OFFSET 0.0 0.0 0.0
  CHANNELS 6 Xposition Yposition Zposition Zrotation Yrotation Xrotation
  JOINT Hips
  {
    OFFSET 0.0 100.0 0.0
    CHANNELS 6 Xposition Yposition Zposition Zrotation Yrotation Xrotation
    JOINT Spine1
    {
      OFFSET 5.003913 -0.037094 -0.013727
      CHANNELS 3 Zrotation Yrotation Xrotation
      JOINT Spine2
      {
        OFFSET 7.125363 -1e-06 0.0
        CHANNELS 3 Zrotation Yrotation Xrotation
        JOINT Chest
        {
          OFFSET 7.594027 1e-06 0.0
          CHANNELS 3 Zrotation Yrotation Xrotation
          JOINT Neck1
          {
            OFFSET 26.313086 -0.460272 -0.181672
            CHANNELS 3 Zrotation Yrotation Xrotation
            JOINT Neck2
            {
              OFFSET 8.045911 0.0 0.0
              CHANNELS 3 Zrotation Yrotation Xrotation
              JOINT Head
              {
                OFFSET 6.432774 0.0 0.0
                CHANNELS 3 Zrotation Yrotation Xrotation
                JOINT HeadEnd
                {
                  OFFSET 16.169773 0.06451 0.00362
                  CHANNELS 3 Zrotation Yrotation Xrotation
                }
                JOINT Jaw
                {
                  OFFSET 0.108741 3.12938 0.002639
                  CHANNELS 3 Zrotation Yrotation Xrotation
                }
                JOINT LeftEye
                {
                  OFFSET 4.45173 8.166359 3.206392
                  CHANNELS 3 Zrotation Yrotation Xrotation
                }
                JOINT RightEye
                {
                  OFFSET 4.436895 8.135758 -3.222429
                  CHANNELS 3 Zrotation Yrotation Xrotation
                }
              }
            }
          }
          JOINT LeftShoulder
          {
            OFFSET 23.218927 5.195579 1.621656
            CHANNELS 3 Zrotation Yrotation Xrotation
            JOINT LeftArm
            {
              OFFSET 15.902118 2e-06 -2e-06
              CHANNELS 3 Zrotation Yrotation Xrotation
              JOINT LeftForeArm
              {
                OFFSET 28.739307 0.0 -1e-06
                CHANNELS 3 Zrotation Yrotation Xrotation
                JOINT LeftHand
                {
                  OFFSET 27.093981 -4e-06 0.0
                  CHANNELS 3 Zrotation Yrotation Xrotation
                  JOINT LeftHandThumb1
                  {
                    OFFSET 2.276781 3.380274 0.83384
                    CHANNELS 3 Zrotation Yrotation Xrotation
                    JOINT LeftHandThumb2
                    {
                      OFFSET 4.705309 -1e-06 -1e-06
                      CHANNELS 3 Zrotation Yrotation Xrotation
                      JOINT LeftHandThumb3
                      {
                        OFFSET 2.798515 0.0 3e-06
                        CHANNELS 3 Zrotation Yrotation Xrotation
                        JOINT LeftHandThumbEnd
                        {
                          OFFSET 3.180793 4e-06 -4e-06
                          CHANNELS 3 Zrotation Yrotation Xrotation
                        }
                      }
                    }
                  }
                  JOINT LeftHandIndex1
                  {
                    OFFSET 3.247786 2.352677 0.137192
                    CHANNELS 3 Zrotation Yrotation Xrotation
                    JOINT LeftHandIndex2
                    {
                      OFFSET 6.367095 1e-06 0.0
                      CHANNELS 3 Zrotation Yrotation Xrotation
                      JOINT LeftHandIndex3
                      {
                        OFFSET 3.662364 0.0 0.0
                        CHANNELS 3 Zrotation Yrotation Xrotation
                        JOINT LeftHandIndex4
                        {
                          OFFSET 2.329242 4e-06 -4e-06
                          CHANNELS 3 Zrotation Yrotation Xrotation
                          JOINT LeftHandIndexEnd
                          {
                            OFFSET 2.767823 1e-06 0.0
                            CHANNELS 3 Zrotation Yrotation Xrotation
                          }
                        }
                      }
                    }
                  }
                  JOINT LeftHandMiddle1
                  {
                    OFFSET 3.163612 0.945023 -0.406112
                    CHANNELS 3 Zrotation Yrotation Xrotation
                    JOINT LeftHandMiddle2
                    {
                      OFFSET 6.276789 3e-06 0.0
                      CHANNELS 3 Zrotation Yrotation Xrotation
                      JOINT LeftHandMiddle3
                      {
                        OFFSET 4.35652 -1e-06 4e-06
                        CHANNELS 3 Zrotation Yrotation Xrotation
                        JOINT LeftHandMiddle4
                        {
                          OFFSET 2.996877 0.0 8e-06
                          CHANNELS 3 Zrotation Yrotation Xrotation
                          JOINT LeftHandMiddleEnd
                          {
                            OFFSET 2.323256 3e-06 -4e-06
                            CHANNELS 3 Zrotation Yrotation Xrotation
                          }
                        }
                      }
                    }
                  }
                  JOINT LeftHandRing1
                  {
                    OFFSET 2.882606 -0.309162 0.107445
                    CHANNELS 3 Zrotation Yrotation Xrotation
                    JOINT LeftHandRing2
                    {
                      OFFSET 6.033198 0.0 4e-06
                      CHANNELS 3 Zrotation Yrotation Xrotation
                      JOINT LeftHandRing3
                      {
                        OFFSET 4.350578 3e-06 0.0
                        CHANNELS 3 Zrotation Yrotation Xrotation
                        JOINT LeftHandRing4
                        {
                          OFFSET 2.651321 2e-06 -7e-06
                          CHANNELS 3 Zrotation Yrotation Xrotation
                          JOINT LeftHandRingEnd
                          {
                            OFFSET 1.937663 1e-06 -4e-06
                            CHANNELS 3 Zrotation Yrotation Xrotation
                          }
                        }
                      }
                    }
                  }
                  JOINT LeftHandPinky1
                  {
                    OFFSET 2.865315 -1.525436 0.575687
                    CHANNELS 3 Zrotation Yrotation Xrotation
                    JOINT LeftHandPinky2
                    {
                      OFFSET 5.54936 1e-06 -8e-06
                      CHANNELS 3 Zrotation Yrotation Xrotation
                      JOINT LeftHandPinky3
                      {
                        OFFSET 3.070974 0.0 -4e-06
                        CHANNELS 3 Zrotation Yrotation Xrotation
                        JOINT LeftHandPinky4
                        {
                          OFFSET 1.549672 1e-06 0.0
                          CHANNELS 3 Zrotation Yrotation Xrotation
                          JOINT LeftHandPinkyEnd
                          {
                            OFFSET 1.952123 0.0 0.0
                            CHANNELS 3 Zrotation Yrotation Xrotation
                          }
                        }
                      }
                    }
                  }
                }
              }
            }
          }
          JOINT RightShoulder
          {
            OFFSET 23.161716 5.296122 -1.380114
            CHANNELS 3 Zrotation Yrotation Xrotation
            JOINT RightArm
            {
              OFFSET -16.027195 -2e-06 1.1e-05
              CHANNELS 3 Zrotation Yrotation Xrotation
              JOINT RightForeArm
              {
                OFFSET -28.736639 4e-06 2e-06
                CHANNELS 3 Zrotation Yrotation Xrotation
                JOINT RightHand
                {
                  OFFSET -27.133619 6e-06 0.0
                  CHANNELS 3 Zrotation Yrotation Xrotation
                  JOINT RightHandThumb1
                  {
                    OFFSET -2.274328 -3.351035 -0.83067
                    CHANNELS 3 Zrotation Yrotation Xrotation
                    JOINT RightHandThumb2
                    {
                      OFFSET -4.703594 -3e-06 2e-06
                      CHANNELS 3 Zrotation Yrotation Xrotation
                      JOINT RightHandThumb3
                      {
                        OFFSET -2.794935 -4e-06 -3e-06
                        CHANNELS 3 Zrotation Yrotation Xrotation
                        JOINT RightHandThumbEnd
                        {
                          OFFSET -3.183852 4e-06 1e-06
                          CHANNELS 3 Zrotation Yrotation Xrotation
                        }
                      }
                    }
                  }
                  JOINT RightHandIndex1
                  {
                    OFFSET -3.253496 -2.33755 -0.127667
                    CHANNELS 3 Zrotation Yrotation Xrotation
                    JOINT RightHandIndex2
                    {
                      OFFSET -6.344434 0.0 0.0
                      CHANNELS 3 Zrotation Yrotation Xrotation
                      JOINT RightHandIndex3
                      {
                        OFFSET -3.654871 0.0 -8e-06
                        CHANNELS 3 Zrotation Yrotation Xrotation
                        JOINT RightHandIndex4
                        {
                          OFFSET -2.327586 -1e-06 0.0
                          CHANNELS 3 Zrotation Yrotation Xrotation
                          JOINT RightHandIndexEnd
                          {
                            OFFSET -2.770001 3e-06 8e-06
                            CHANNELS 3 Zrotation Yrotation Xrotation
                          }
                        }
                      }
                    }
                  }
                  JOINT RightHandMiddle1
                  {
                    OFFSET -3.168223 -0.944764 0.411762
                    CHANNELS 3 Zrotation Yrotation Xrotation
                    JOINT RightHandMiddle2
                    {
                      OFFSET -6.266691 -1e-06 -4e-06
                      CHANNELS 3 Zrotation Yrotation Xrotation
                      JOINT RightHandMiddle3
                      {
                        OFFSET -4.348901 0.0 0.0
                        CHANNELS 3 Zrotation Yrotation Xrotation
                        JOINT RightHandMiddle4
                        {
                          OFFSET -3.00024 2e-06 -4e-06
                          CHANNELS 3 Zrotation Yrotation Xrotation
                          JOINT RightHandMiddleEnd
                          {
                            OFFSET -2.321477 -4e-06 -4e-06
                            CHANNELS 3 Zrotation Yrotation Xrotation
                          }
                        }
                      }
                    }
                  }
                  JOINT RightHandRing1
                  {
                    OFFSET -2.885654 0.293261 -0.119232
                    CHANNELS 3 Zrotation Yrotation Xrotation
                    JOINT RightHandRing2
                    {
                      OFFSET -6.032835 -1e-06 -4e-06
                      CHANNELS 3 Zrotation Yrotation Xrotation
                      JOINT RightHandRing3
                      {
                        OFFSET -4.33881 0.0 -4e-06
                        CHANNELS 3 Zrotation Yrotation Xrotation
                        JOINT RightHandRing4
                        {
                          OFFSET -2.654903 -4e-06 -4e-06
                          CHANNELS 3 Zrotation Yrotation Xrotation
                          JOINT RightHandRingEnd
                          {
                            OFFSET -1.935122 0.0 4e-06
                            CHANNELS 3 Zrotation Yrotation Xrotation
                          }
                        }
                      }
                    }
                  }
                  JOINT RightHandPinky1
                  {
                    OFFSET -2.866241 1.503904 -0.60527
                    CHANNELS 3 Zrotation Yrotation Xrotation
                    JOINT RightHandPinky2
                    {
                      OFFSET -5.553177 -2e-06 0.0
                      CHANNELS 3 Zrotation Yrotation Xrotation
                      JOINT RightHandPinky3
                      {
                        OFFSET -3.062664 -1e-06 -4e-06
                        CHANNELS 3 Zrotation Yrotation Xrotation
                        JOINT RightHandPinky4
                        {
                          OFFSET -1.546529 2e-06 4e-06
                          CHANNELS 3 Zrotation Yrotation Xrotation
                          JOINT RightHandPinkyEnd
                          {
                            OFFSET -1.952341 0.0 -4e-06
                            CHANNELS 3 Zrotation Yrotation Xrotation
                          }
                        }
                      }
                    }
                  }
                }
              }
            }
          }
        }
      }
    }
    JOINT LeftLeg
    {
      OFFSET -8.443107 2.567604 10.043214
      CHANNELS 3 Zrotation Yrotation Xrotation
      JOINT LeftShin
      {
        OFFSET 43.229198 1e-06 -1e-06
        CHANNELS 3 Zrotation Yrotation Xrotation
        JOINT LeftFoot
        {
          OFFSET 42.298611 1e-06 1e-06
          CHANNELS 3 Zrotation Yrotation Xrotation
          JOINT LeftToeBase
          {
            OFFSET 14.165858 1e-06 0.0
            CHANNELS 3 Zrotation Yrotation Xrotation
            JOINT LeftToeEnd
            {
              OFFSET 6.7141 -0.234461 0.0
              CHANNELS 3 Zrotation Yrotation Xrotation
            }
          }
        }
      }
    }
    JOINT RightLeg
    {
      OFFSET -8.303923 2.592729 -10.047278
      CHANNELS 3 Zrotation Yrotation Xrotation
      JOINT RightShin
      {
        OFFSET -43.369682 0.0 1e-06
        CHANNELS 3 Zrotation Yrotation Xrotation
        JOINT RightFoot
        {
          OFFSET -42.260784 4e-06 2e-06
          CHANNELS 3 Zrotation Yrotation Xrotation
          JOINT RightToeBase
          {
            OFFSET -14.222245 -2e-06 -1e-06
            CHANNELS 3 Zrotation Yrotation Xrotation
            JOINT RightToeEnd
            {
              OFFSET -6.660062 0.232574 -2e-06
              CHANNELS 3 Zrotation Yrotation Xrotation
            }
          }
        }
      }
    }
  }
}
MOTION
Frames: 4
Frame Time: 0.03333333333333333
0.0 0.0 0.0 0.0 -0.0 0.0 0.19609 100.009033 -1.156823 89.849716 1.934322 90.472183 -1.074115 1.918742 -0.064653 -11.041172 0.070573 -0.179676 16.086288 -1.176813 -1.744803 25.477055 -1.188334 2.396899 -2.668931 -0.502172 -1.380825 -35.723251 -1.671365 -0.602624 6e-06 -0.0 0.0 0.079357 -0.013214 -0.05166 0.138516 -0.034338 -0.080272 0.16302 0.003475 -0.016803 -131.313538 -68.321098 147.738922 41.681675 -57.647549 -21.844437 27.632416 -0.170531 -0.120499 -2.388639 20.720224 3.240029 17.636627 -26.322756 52.411156 -19.466579 -14.395607 29.410343 -0.0 -8.774819 -5e-06 15.573669 -18.36673 6.117043 -0.609777 -1.795644 -3.889319 -4.807086 -11.046766 -2.937836 1e-06 -20.97595 3.1e-05 -5.019984 -25.033491 -4.031852 5e-06 -1e-06 -1e-06 -10.634527 -5.68695 -3.56558 10.573259 -17.92289 -3.113869 -4e-06 -13.821175 2.7e-05 -0.501823 -31.181458 -4.026948 -11.209323 -59.035156 6.62668 -13.982701 -7.150173 -2.875036 13.772716 -8.401464 -3.218226 0.347703 -34.211472 0.771728 -0.963055 -17.733368 2.621062 1e-06 1e-06 -0.0 -17.346407 -20.095144 -4.201768 21.75754 -1.638379 3.866429 -0.0 -6.338808 1.3e-05 -1.697603 -22.591698 -6.193971 -1e-06 -3e-06 -2e-06 64.486275 -75.593506 128.486755 38.876213 -64.010185 -11.635265 32.677792 -0.015828 0.004554 0.672126 16.001656 19.144817 22.182119 -20.375912 49.933243 -16.701668 -16.74349 28.476412 1.4e-05 -12.690565 -1.1e-05 15.328635 -18.012304 3.003304 -0.105923 -1.513841 -4.275869 -5.039034 -5.612844 -2.953547 -6e-06 -11.020478 2e-05 -6.111303 -15.895278 -3.840463 1e-06 0.0 -1e-06 -10.283358 -5.680268 -4.341831 11.028255 -11.302342 -2.372596 -1.384287 -14.238515 -6.320091 -0.625476 -26.924089 -3.827557 -4.372322 -49.554256 -3.403416 -13.708506 -7.363451 -3.720936 18.141083 -14.052662 -3.242616 -2.4e-05 -18.787197 4.1e-05 -0.429727 -8.45603 2.555526 -1e-06 0.0 -1e-06 -15.923524 -20.0944 -5.473563 30.419125 -7.190782 1.735967 -6e-06 -8.1629 1.9e-05 -1.861942 -22.86141 -6.16788 0.0 -1e-06 -3e-06 -174.472275 -1.920777 -12.04673 5.346825 0.032372 0.04468 -77.559982 -1.759311 -5.406531 -4.746636 1.487456 2.161789 -0.999997 0.0 0.0 5.635223 -3.547282 -3.311329 5.516495 -0.055536 0.312829 -78.942245 1.734802 -6.525642 -4.124826 0.695086 1.697282 -1.000004 0.0 -0.0 
0.0 0.0 0.0 0.0 -0.0 0.0 0.157599 100.023666 -1.149387 89.856018 2.005804 90.466446 -1.088355 1.885565 -0.063733 -11.067389 0.07103 -0.188551 16.169701 -1.169529 -1.79407 25.511292 -1.108952 2.389589 -2.655083 -0.568264 -1.36313 -35.665421 -1.715142 -0.661762 6e-06 -0.0 0.0 0.082883 -0.001361 -0.020111 0.157522 -0.029294 -0.043361 0.176127 0.02191 0.009359 -131.37236 -68.264229 147.888626 41.914745 -57.845589 -21.348608 26.980328 -0.23968 -0.165951 -2.507468 20.650053 3.529206 17.636625 -26.322718 52.411163 -19.466692 -14.395616 29.410402 1e-06 -8.774838 -2e-06 15.635635 -18.337393 6.139134 -0.609773 -1.795655 -3.889329 -4.8071 -11.046827 -2.937851 4e-06 -20.976067 -1.1e-05 -5.019974 -25.033653 -4.031908 6e-06 -1e-06 -0.0 -10.634544 -5.686981 -3.56558 10.573285 -17.922968 -3.113913 3e-06 -13.821237 -6e-06 -0.501759 -31.181631 -4.02705 -11.249783 -59.115383 6.800467 -13.98273 -7.150208 -2.875032 13.772747 -8.4015 -3.218251 0.34774 -34.211643 0.771639 -0.963026 -17.733448 2.621022 1e-06 -1e-06 -2e-06 -17.346449 -20.095243 -4.201765 21.757593 -1.638368 3.866422 -0.0 -6.338836 -2e-06 -1.697588 -22.591837 -6.194042 -1e-06 -2e-06 -2e-06 64.156265 -75.447052 128.938019 38.647156 -64.459709 -10.71331 32.294769 -0.021735 0.018006 0.584604 15.578605 18.891565 22.182127 -20.375858 49.933167 -16.701775 -16.74354 28.476435 1e-06 -12.690614 -4e-06 15.372108 -18.007376 2.936398 -0.105916 -1.513849 -4.27587 -5.039044 -5.612861 -2.953542 2e-06 -11.020517 8e-06 -6.111311 -15.895332 -3.840453 0.0 0.0 -2e-06 -10.283372 -5.68028 -4.341818 11.028293 -11.302382 -2.372622 -1.38428 -14.238564 -6.320093 -0.625441 -26.924191 -3.827579 -4.305082 -49.459835 -3.507468 -13.708528 -7.363467 -3.720921 18.141146 -14.052714 -3.242656 4e-06 -18.787262 8e-06 -0.429706 -8.456054 2.555504 -2e-06 -1e-06 -1e-06 -15.923552 -20.094454 -5.47355 30.419222 -7.190814 1.735938 5e-06 -8.162922 1e-06 -1.861909 -22.8615 -6.167939 2e-06 -3e-06 -1e-06 -174.402512 -1.93664 -12.016382 5.377405 0.037717 0.068493 -77.572136 -1.883925 -5.402561 -4.786368 1.490968 2.160908 -1.000003 0.0 -0.0 5.755804 -3.546321 -3.265512 5.46844 -0.047648 0.263439 -78.970039 1.697339 -6.530011 -4.22859 0.696692 1.694502 -1.000003 0.0 -0.0 
0.0 0.0 0.0 0.0 -0.0 0.0 0.145763 100.015701 -1.145042 89.857887 2.056245 90.507065 -1.132737 1.865128 -0.060154 -11.100786 0.053016 -0.21551 16.265993 -1.177282 -1.856577 25.557606 -0.992924 2.390796 -2.64437 -0.612522 -1.325947 -35.685368 -1.742056 -0.675029 5e-06 -0.0 -0.0 0.087369 0.003331 -0.015866 0.165125 -0.034038 -0.037542 0.183564 0.035516 0.011998 -131.449249 -68.178757 148.002792 41.974785 -58.061111 -20.328186 26.176899 -0.263687 -0.176171 -2.888734 20.511618 3.892945 17.636606 -26.322659 52.411057 -19.466665 -14.395565 29.410355 -4e-06 -8.77482 -4e-06 15.670213 -18.338608 6.176039 -0.609774 -1.795654 -3.889321 -4.807082 -11.046817 -2.937852 1.6e-05 -20.976063 -1.6e-05 -5.019952 -25.033674 -4.031907 5e-06 -1e-06 -1e-06 -10.634515 -5.686967 -3.565581 10.573269 -17.922962 -3.113909 1.1e-05 -13.821239 -7e-06 -0.501739 -31.181662 -4.027049 -11.237047 -59.145199 6.911417 -13.982687 -7.150192 -2.875037 13.772712 -8.401498 -3.21824 0.347761 -34.211636 0.771629 -0.963016 -17.733459 2.621025 0.0 1e-06 -0.0 -17.346386 -20.095201 -4.201776 21.757532 -1.638375 3.866423 4e-06 -6.338837 -3e-06 -1.697561 -22.59186 -6.19405 -3e-06 -2e-06 -3e-06 63.520412 -75.250275 129.701965 38.217896 -64.949837 -9.44599 31.804899 -0.027339 0.027429 0.53853 14.974236 18.587303 22.182079 -20.375858 49.9333 -16.701851 -16.743507 28.476559 -1.9e-05 -12.690592 6e-06 15.421459 -17.99225 2.8628 -0.105918 -1.513859 -4.275883 -5.039028 -5.612869 -2.953562 2.1e-05 -11.020544 -1.7e-05 -6.111254 -15.895386 -3.840504 1e-06 1e-06 -1e-06 -10.283357 -5.680283 -4.341839 11.028296 -11.302415 -2.372646 -1.384242 -14.238599 -6.320145 -0.625358 -26.924286 -3.827651 -4.238723 -49.380085 -3.601993 -13.708507 -7.363471 -3.720943 18.14115 -14.052755 -3.242694 3.9e-05 -18.787292 -2.2e-05 -0.429697 -8.456068 2.555505 1e-06 0.0 3e-06 -15.9235 -20.094477 -5.473596 30.419174 -7.190846 1.7359 1.5e-05 -8.162926 -8e-06 -1.861829 -22.861507 -6.167976 -2e-06 -4e-06 -2e-06 -174.355164 -1.943279 -12.038513 5.421295 0.03412 0.088367 -77.624565 -1.919734 -5.433031 -4.724814 1.492417 2.161361 -1.0 -0.0 -0.0 5.844817 -3.536647 -3.207025 5.459703 -0.045198 0.235618 -78.941422 1.675349 -6.502506 -4.269855 0.684461 1.686906 -1.000001 0.0 -0.0 
0.0 0.0 0.0 0.0 -0.0 0.0 0.147343 99.982788 -1.113508 89.865555 2.110958 90.564377 -1.174213 1.837592 -0.068202 -11.124591 0.03109 -0.234253 16.358353 -1.181544 -1.9452 25.56802 -0.854657 2.399503 -2.624999 -0.632197 -1.300227 -35.732052 -1.779995 -0.70579 6e-06 -0.0 0.0 0.088894 0.006759 -0.01474 0.166944 -0.039602 -0.034409 0.184708 0.047645 0.011423 -131.522186 -68.13942 148.121368 42.012104 -58.293396 -18.946108 25.193497 -0.259663 -0.173458 -3.391232 20.300953 4.374448 17.636551 -26.322548 52.410854 -19.466499 -14.39555 29.410164 3e-06 -8.774779 -5e-06 15.705252 -18.361736 6.222254 -0.609773 -1.795639 -3.889304 -4.807068 -11.046721 -2.937822 3e-06 -20.975826 9e-06 -5.019939 -25.033316 -4.031851 5e-06 1e-06 -0.0 -10.634494 -5.686934 -3.565561 10.573213 -17.922802 -3.113867 -1e-06 -13.821091 9e-06 -0.501795 -31.181217 -4.026959 -11.194512 -59.154678 6.976466 -13.982663 -7.150153 -2.875017 13.772662 -8.401423 -3.218216 0.347717 -34.211235 0.771676 -0.963027 -17.733238 2.621013 -0.0 1e-06 -0.0 -17.346359 -20.095083 -4.201745 21.757467 -1.638362 3.866405 1e-06 -6.338772 4e-06 -1.697591 -22.59156 -6.193953 -1e-06 -5e-06 -1e-06 62.767746 -75.006615 130.61084 37.720863 -65.411453 -8.030258 31.116293 -0.062301 0.013453 0.551468 14.175076 18.281836 22.182056 -20.375813 49.93317 -16.701738 -16.743498 28.476433 1e-06 -12.690571 2e-06 15.499378 -17.986372 2.788499 -0.105919 -1.51385 -4.275869 -5.03903 -5.612852 -2.953544 2e-06 -11.020483 -6e-06 -6.111279 -15.895291 -3.840476 -0.0 -0.0 1e-06 -10.283351 -5.680272 -4.341822 11.028261 -11.302348 -2.372623 -1.384272 -14.23852 -6.320108 -0.625427 -26.924089 -3.827603 -4.193387 -49.378098 -3.653466 -13.708504 -7.36346 -3.720922 18.141096 -14.05267 -3.242661 1e-06 -18.787199 -3e-06 -0.429711 -8.456024 2.555502 1e-06 -0.0 -1e-06 -15.923517 -20.094418 -5.473556 30.419142 -7.190779 1.735927 1e-06 -8.162893 -2e-06 -1.861899 -22.861406 -6.167936 1e-06 -3e-06 -2e-06 -174.306015 -1.940616 -12.097812 5.466296 0.028697 0.102463 -77.696671 -1.906506 -5.475424 -4.605185 1.494 2.164297 -1.000003 -1e-06 -1e-06 5.942973 -3.53945 -3.178512 5.463075 -0.042317 0.222101 -78.939102 1.653001 -6.502769 -4.270279 0.673272 1.680573 -1.000007 0.0 -0.0 
